<svg xmlns="http://www.w3.org/2000/svg" width="1440" height="480" viewBox="0 0 1440 480"><defs><linearGradient id="g" x1="0" x2="1" y1="0" y2="1"><stop offset="0" stop-color="#031b10"/><stop offset="0.55" stop-color="#0b3d1f"/><stop offset="1" stop-color="#020617"/></linearGradient><filter id="s"><feDropShadow dx="0" dy="8" stdDeviation="8" flood-color="#000" flood-opacity=".45"/></filter></defs><rect width="1440" height="480" rx="26" fill="url(#g)"/><g opacity=".22" fill="#22c55e"><circle cx="210" cy="115" r="78" fill="none" stroke="#22c55e" stroke-width="7"/><circle cx="210" cy="115" r="48" fill="none" stroke="#dcfce7" stroke-width="5"/><path d="M155 365h520" stroke="#22c55e" stroke-width="6"/><path d="M870 70l-95 170 95 170" fill="none" stroke="#f8fafc" stroke-width="14" opacity=".9"/></g><text x="220" y="225" font-family="Arial Black,Arial,sans-serif" font-size="92" font-weight="900" fill="#f8fafc" filter="url(#s)">World Cup <tspan fill="#4ade80">Pulse</tspan></text><text x="222" y="300" font-family="Arial,Helvetica,sans-serif" font-size="36" font-weight="700" fill="#f8fafc">Qualification race  •  Best third-place battle  •  Bracket watch</text><g transform="translate(920 92)"><rect x="0" y="0" width="360" height="290" rx="18" fill="#02130b" opacity=".72" stroke="#22c55e" stroke-width="3"/><text x="28" y="52" font-family="Arial,Helvetica,sans-serif" font-size="24" font-weight="800" fill="#86efac">BEST THIRD-PLACE RACE</text><g font-family="Arial,Helvetica,sans-serif" font-size="21" fill="#f8fafc"><text x="38" y="105">1  Sweden</text><text x="38" y="145">2  Scotland</text><text x="38" y="185">3  Croatia</text><text x="38" y="225">4  Algeria</text></g><g stroke="#22c55e" stroke-width="4"><path d="M230 96h72M230 136h52M230 176h82M230 216h42"/></g></g><g transform="translate(1285 80)" stroke="#f8fafc" stroke-width="5" fill="none" opacity=".86"><path d="M0 40h70v45h-70M0 160h70v45h-70M70 62h55M70 182h55M125 62v120"/><circle cx="70" cy="250" r="42" stroke="#22c55e"/></g><text x="720" y="445" text-anchor="middle" font-family="Arial,Helvetica,sans-serif" font-size="22" fill="#bbf7d0">Green hosted banner test — email quality standard</text></svg>